<?xml version="1.0" encoding="utf-8"?>
<svg viewBox="0 0 1024 1024" xmlns="http://www.w3.org/2000/svg">
  <path fill="#d81e06" d="M382.224 38.927l-9.965-21.056-126.592 73.085 13.258 19.169 27.762 40.126c33.577-29.595 73.012-52.695 116.361-67.306l-20.824-44.018zM765.068 110.125l13.266-19.169-126.587-73.085-9.978 21.056-20.831 44.014c43.353 14.61 82.792 37.711 116.372 67.309l27.758-40.125zM879.145 276.31l21.073-9.972-73.086-126.591-19.173 13.265-40.129 27.757c29.596 33.578 52.696 73.015 67.306 116.365l44.009-20.824zM579.202 71.798l3.976-48.563L585.084 0.007H438.907l1.907 23.228 3.974 48.565a342.514 342.514 0 0 1 67.211-6.64c23.007 0 45.476 2.294 67.203 6.638zM216.038 153.012l-19.162-13.265-73.094 126.591 21.071 9.972 44.01 20.825c14.609-43.347 37.707-82.781 67.299-116.357l-40.124-27.766zM641.777 773.232l9.97 21.057 126.587-73.085-13.266-19.164-27.757-40.13c-33.578 29.595-73.015 52.695-116.364 67.306l20.83 44.016zM144.854 535.857l-21.071 9.965 73.094 126.591 19.162-13.265 40.129-27.761c-29.592-33.575-52.69-73.007-67.3-116.352l-44.014 20.822zM807.967 659.148l19.165 13.265 73.086-126.591-21.073-9.973-44.007-20.827c-14.609 43.349-37.709 82.785-67.303 116.362l40.132 27.764zM258.925 702.04l-13.258 19.164 126.592 73.085 9.965-21.057 20.826-44.018c-43.347-14.609-82.781-37.709-116.356-67.301l-27.769 40.127zM846.279 473.294l48.566 3.971 23.227 1.899V332.996l-23.227 1.899-48.566 3.966a342.511 342.511 0 0 1 6.641 67.219 342.46 342.46 0 0 1-6.641 67.214zM177.719 338.874l-48.572-3.979-23.22-1.899v146.168l23.22-1.899 48.573-3.973a342.524 342.524 0 0 1-6.64-67.212c0-23.007 2.294-45.477 6.639-67.206zM444.785 740.359l-3.971 48.567-1.907 23.227h146.177l-1.893-23.227-3.971-48.568A342.438 342.438 0 0 1 512 747c-23.01 0-45.483-2.295-67.215-6.641zM620.373 860.389H403.596l-17.033-4.573L270.832 789v234.994l160.782-58.664 80.393-29.328 80.376 29.328 160.785 58.664V789.001l-115.72 66.812zM512 406.08m-292.92 0a292.92 292.92 0 1 0 585.84 0 292.92 292.92 0 1 0-585.84 0Z"/>
  <text x="500" y="350" style="text-anchor: middle; fill: white; font-size: 45px; white-space: pre;">徽章</text>
  <text x="500" y="450" style="text-anchor: middle; fill: white; font-size: 48px; white-space: pre;">#[TOKEN ID]</text>
</svg>